<svg version="1.2" xmlns="http://www.w3.org/2000/svg" viewBox="0 0 1870 689" width="1920" height="707"><style>.a{fill:#fff}.b{fill:#f44336}.c{fill:#ffcdd2}</style><path fill-rule="evenodd" class="a" d="m1778.5 0.5l8 2.2c4.4 1.3 10.9 3.5 14.5 5 3.6 1.5 9.8 4.5 13.9 6.7 4 2.3 10.8 6.9 15 10.4 4.2 3.5 10.2 9.3 13.4 13 3.2 3.7 8.2 10.7 11.1 15.7 2.9 5 6.5 11.9 7.9 15.5 1.4 3.6 3.6 10.5 4.8 15.5 1.9 7.5 2.3 11.7 2.3 41l-39.2 219.5c-21.6 120.7-40.5 224.2-42.1 230-1.6 5.8-4.7 14.5-6.8 19.5-2.2 5-5.9 12.4-8.3 16.5-2.4 4.1-6.6 10.4-9.3 14-2.8 3.6-7.7 9.6-11.1 13.4-3.3 3.8-9.5 9.7-13.6 13.1-4.1 3.4-11.1 8.6-15.5 11.5-4.4 3-12.5 7.5-18 10.1-5.5 2.5-13.4 5.8-17.5 7.2-4.1 1.4-11.5 3.5-16.5 4.6-5 1.1-14.8 2.5-22 3.1-9 0.7-250.9 1-779.5 1-660 0-767.8-0.2-776-1.4-5.2-0.8-13.3-2.7-18-4.2-4.7-1.4-11.9-4.3-16-6.4-4.1-2.1-11.1-6.5-15.5-9.7-4.4-3.3-11-9.1-14.6-12.9-3.6-3.8-8.4-9.6-10.6-12.9-2.2-3.3-5.8-9.6-8-14-2.2-4.4-4.9-10.9-6.1-14.5-1.1-3.6-2.6-9-3.4-12-0.8-3.5-1.3-11.6-1.2-38.5l39.6-222c29.2-163.3 40.5-224.6 42.8-232 1.8-5.5 5.3-14.5 8-20 2.6-5.5 7.5-14 10.8-19 3.3-5 9.5-13 13.8-17.8 4.4-4.8 12-12.1 16.9-16.2 4.9-4.1 13.5-10.1 19-13.4 5.5-3.3 14.3-7.8 19.5-10 5.2-2.1 14-5.1 19.5-6.6 5.5-1.5 14.3-3.3 19.5-4 7.7-1.1 158.1-1.3 1568.5-1zm-50.7 579.5c-6.6 14.6-12.6 28.1-13.5 30l-1.5 3.5c5.8-5.4 10.2-10.6 13.4-15 3.3-4.4 7.8-11.5 9.9-15.8 2.2-4.2 5-11 6.3-14.9 1.4-4 3.8-14.7 5.5-23.7 1.6-9.1 2.9-16.6 2.8-16.8-0.2-0.1-2.7 5.7-5.7 13-2.9 7.3-10.7 25.1-17.2 39.7z"/><path  d="m219 46.1c-4.7 0.4-12.6 2-17.5 3.4-4.9 1.5-12.4 4.2-16.5 6.1-4.1 2-10.7 5.6-14.5 8.2-3.8 2.6-11 8.5-15.8 13.2-4.9 4.7-11 11.7-13.7 15.5-2.6 3.8-6.7 10.8-8.9 15.5-2.3 4.7-5 11.7-6.1 15.5-1.1 3.8-19.4 104.4-40.6 223.5-21.2 119.1-39 219.9-39.6 224-0.9 5.8-0.9 9.4 0.1 16 0.7 4.7 2.6 11.9 4.2 16 1.6 4.1 5.2 10.5 7.9 14.3 2.8 3.7 7.6 8.8 10.8 11.3 3.1 2.5 8.9 6.1 12.7 8 3.8 1.9 10.2 4.1 14 4.9 6.2 1.4 90.8 1.5 784.5 1.3l777.5-0.3c12.4-3.5 19.6-6.1 24-8 4.4-2 10.4-5 13.3-6.8 3-1.7 7.9-5.2 11-7.7 3.9-3.1 6.5-6.2 8.4-10 1.5-3 7.4-16.1 13.2-29 5.8-12.9 13.7-31.1 17.6-40.5l7-17c66-369.5 72.3-406.6 72.3-414 0-5.1-0.7-11.8-1.7-15.5-0.9-3.6-3.3-9.8-5.4-13.9-2.2-4.5-6.3-10.3-10.3-14.5-3.7-3.9-9.5-8.8-13-10.9-3.5-2.1-10-5-14.4-6.5l-8-2.7c-1196.6-0.2-1547.8 0.1-1552.5 0.6z"/><path class="b" d="m422.5 136c-3.9 0.4-11.9 1.7-18 3-6.1 1.2-16.2 3.9-22.5 6-6.3 2.1-16 5.7-21.5 8.2-5.5 2.4-14.3 6.9-19.5 10-5.2 3.1-13.5 8.5-18.4 11.9-4.9 3.5-13.9 11.2-20 17-6.1 5.8-14.5 14.8-18.7 20-4.2 5.2-10.1 13.2-13.2 17.9-3 4.7-7.5 12.3-10 17-2.5 4.7-6.6 13.7-9.1 20-2.5 6.3-5.9 16.7-7.5 23-1.7 6.3-3.8 15.8-4.8 21-1.4 7.5-1.7 14.6-1.7 33.5 0.1 21.8 0.3 25.3 2.7 37.8 1.5 7.5 4.7 19.9 7.2 27.5 2.5 7.5 7.4 19.6 11 26.7 3.5 7.1 9.4 17.5 13.1 23 3.6 5.5 9.4 13.4 12.8 17.5 3.3 4.1 10.1 11.5 15.1 16.4 4.9 4.9 13.1 12 18 15.9 4.9 3.8 13.1 9.4 18 12.5 4.9 3 13.9 7.9 20 10.8 6.1 2.9 15.7 6.9 21.5 8.9 5.8 2 14.8 4.7 20 6 5.2 1.3 12.9 2.9 17 3.7 4.9 0.8 15.9 1.3 32 1.3 16 0 27.1-0.5 32-1.3 4.1-0.8 12-2.5 17.5-3.8 5.5-1.4 14.1-3.9 19-5.5 5-1.7 15.3-6.1 23-9.8 7.7-3.7 18.5-9.7 24-13.4 5.5-3.6 14.3-10.1 19.5-14.5 5.2-4.3 13.2-11.9 17.7-16.8 4.5-4.9 11.1-12.7 14.6-17.4 3.5-4.7 8.1-11.4 10.4-15 2.2-3.6 6.5-11.4 9.5-17.5 3.1-6.1 7.2-15.5 9.3-21 2-5.5 5-15.2 6.5-21.5 1.6-6.3 3.6-16.7 4.6-23 1.3-9.1 1.5-16 1.1-33-0.3-12.5-1.1-24.9-2-29.5-0.8-4.4-2.8-13.2-4.5-19.5-1.6-6.3-4.7-15.8-6.7-21-2.1-5.2-6.2-14.2-9.1-20-2.9-5.8-8-14.6-11.2-19.5-3.2-4.9-8.7-12.6-12.3-17-3.5-4.3-10-11.5-14.4-16-4.5-4.4-11.4-10.8-15.5-14.1-4.1-3.4-12-9.2-17.5-12.8-5.5-3.7-15.9-9.6-23-13.1-7.1-3.5-18.4-8.1-25-10.4-6.6-2.2-17.4-5.2-24-6.6-6.6-1.5-16.1-3.1-21-3.6-4.9-0.5-15.8-0.8-24-0.7-8.3 0-18.1 0.4-22 0.8z"/><path class="a" d="m863 137.1c-8 0.4-17.6 1.2-21.5 1.9-3.9 0.6-10.1 1.8-14 2.6-3.9 0.8-11.5 2.8-17 4.5-5.5 1.7-14.5 5.2-20 7.8-5.5 2.6-13.6 7.1-18 10.1-4.4 3-12 9.3-16.8 14-4.9 4.7-11 11.7-13.6 15.5-2.7 3.9-6.5 10.3-8.5 14.3-2 3.9-4.7 10.7-6.1 15-1.4 4.2-3.2 11.5-4 16.2-0.8 4.7-1.5 13.4-1.5 19.5 0 6.1 0.5 13.9 1 17.5 0.6 3.6 2 9.4 3.2 13 1.1 3.6 3.9 10.1 6.2 14.5 2.3 4.5 6.6 10.5 9.9 14 3.1 3.3 5.7 6 5.7 6 0.1 0-4.3 3.4-9.6 7.5-5.4 4.1-13.4 11.4-17.8 16.1-4.5 4.7-10.2 11.7-12.8 15.5-2.5 3.8-6.4 10.3-8.6 14.4-2.2 4.1-5.4 11.6-7.2 16.5-1.7 4.9-4 13.5-5.1 19-1.5 7.3-2 13.9-2 24.5 0 9.6 0.5 17.2 1.6 22.5 0.9 4.4 2.4 10 3.2 12.5 0.8 2.5 2.7 7 4.2 10 1.5 3 4.5 8.2 6.6 11.4 2.2 3.3 7.2 8.9 11.1 12.5 3.9 3.6 10.7 8.7 15 11.4 4.4 2.6 11.8 6.3 16.6 8.2 4.9 1.9 13.4 4.6 19 6 5.7 1.4 14.3 3.1 19.3 3.7 5 0.7 19.6 1.3 32.5 1.3 13.6 0 27.3-0.6 32.5-1.3 5-0.7 13.7-2.2 19.5-3.3 5.8-1.2 15.7-3.8 22-5.9 6.3-2 15.8-5.9 21-8.4 5.2-2.6 13.1-7.2 17.5-10.1 4.4-2.9 12-9.3 16.8-14.2 4.9-4.8 11.3-12.4 14.2-16.8 3-4.4 6.9-11.4 8.9-15.5 1.9-4.1 4.6-11.1 6-15.5 1.5-4.4 3.4-11.8 4.4-16.5 1.3-6.4 1.7-13.4 1.6-28.5 0-17.3-0.3-21.1-2.2-28-1.2-4.4-4.2-12.1-6.5-17-2.4-4.9-7.1-12.4-10.4-16.5-3.3-4.1-7-8.4-8.2-9.5-1.2-1.1-2.2-2.2-2.2-2.5 0-0.3 3.3-3 7.3-6.2 4-3.1 10.9-9.4 15.3-14 4.5-4.5 9.9-11 12.2-14.3 2.2-3.3 5.4-8.7 7-12 1.7-3.3 4.2-9.1 5.6-13 1.4-3.9 3.3-11.1 4.2-16 1.4-7.1 1.6-12.3 1.2-24.5-0.4-11.3-1.1-17.2-2.5-22-1.1-3.6-3-9-4.2-12-1.2-3-4.1-8.4-6.4-12-2.4-3.6-6.7-8.9-9.7-11.9-3-2.9-7.7-7.1-10.4-9.1-2.8-2.1-9-5.8-14-8.3-5-2.5-13.5-5.9-19-7.5-5.5-1.6-14.3-3.7-19.5-4.6-5.2-0.9-15.7-2-23.2-2.6-7.5-0.5-14.1-0.9-14.5-0.8-0.4 0-7.3 0.4-15.3 0.9zm599 0.6c-1.4 0.2-6.8 1-12 1.9-5.2 0.8-14.7 3.2-21 5.3-6.3 2.1-15.8 6-21 8.6-5.2 2.6-14.2 8-20 11.9-6.2 4.2-15 11.6-21.6 18.1-6.2 6.1-14.8 15.9-19.3 22-4.4 6.1-10.9 15.9-14.3 22-3.4 6.1-8.4 15.8-11 21.8-2.6 5.9-6.6 16-8.9 22.5-2.2 6.4-5.6 17.6-7.4 24.7-1.9 7.1-4.6 19.8-6 28-1.4 8.3-3.2 21.8-4.2 30-1.1 10.1-1.7 23.9-1.7 42-0.1 21.6 0.3 29.2 1.7 38 1 6.1 2.9 15.1 4.2 20 1.3 4.9 3.8 12.4 5.5 16.5 1.6 4.1 4.9 10.8 7.3 14.9 2.3 4 6.6 10.2 9.5 13.7 2.8 3.5 8.5 9.1 12.5 12.4 4.2 3.5 11.8 8.3 18.2 11.5 6 3 15.3 6.6 20.5 8 5.2 1.4 14.6 3.2 20.8 4 6.1 0.8 16 1.5 22 1.5 5.9 0 15.9-0.6 22.2-1.4 6.3-0.8 14.4-2.1 18-3 3.6-0.8 10.3-2.7 15-4.1 4.7-1.5 13.2-4.9 19-7.7 5.8-2.7 14.8-7.7 20-11.2 5.2-3.5 14.6-11.2 20.9-17.2 6.3-6 14-14 17.1-17.9 3.2-3.9 9-11.9 12.9-18 3.9-6.1 10-16.9 13.5-24 3.5-7.1 8.4-18.4 10.9-25 2.5-6.6 6.1-17.6 8.1-24.5 1.9-6.9 4.8-19.3 6.5-27.5 1.6-8.2 3.6-20.6 4.5-27.5 0.9-6.9 2.1-20.4 2.7-30 0.6-9.6 0.8-23.4 0.4-30.5-0.3-7.1-1.1-16.8-1.6-21.5-0.6-4.7-1.7-11.9-2.5-16-0.9-4.1-2.9-11.6-4.5-16.5-1.5-4.9-4.9-13.1-7.4-18-2.6-4.9-6.8-11.9-9.5-15.5-2.6-3.6-7.9-9.4-11.7-13-3.7-3.6-10-8.7-13.8-11.2-3.8-2.6-10-6-13.7-7.7-3.8-1.7-10.7-4.2-15.5-5.7-4.9-1.4-13.1-3.2-18.3-3.9-5.9-0.9-16.1-1.4-27-1.4-9.6 0.1-18.6 0.3-20 0.6zm-389.9 14.6c-1.2 4.5-12.7 50.5-25.6 102.2l-23.5 94c14.2 21.7 18.5 28.2 18.7 28.5 0.2 0.3 4-0.9 8.6-2.7 4.5-1.8 12-4.4 16.7-5.7 4.7-1.4 12.3-3.2 17-4.1 4.7-0.9 13.2-1.9 19-2.2 6.2-0.3 13.4-0.1 17.5 0.6 3.8 0.6 9.7 2.4 13 4 3.3 1.5 7.5 4.5 9.4 6.7 1.9 2.1 4 5.4 4.8 7.1 0.7 1.8 1.6 5.7 1.9 8.5 0.4 3.4 0.1 8-1 12.8-0.9 4.1-3 10.4-4.7 14-1.9 4-5.3 8.6-8.8 12.1-3.2 3.2-8.4 6.9-12.1 8.7-3.6 1.8-10.1 4.1-14.5 5.2-6.5 1.6-11.2 2-25.3 2-12.7 0-20.3-0.5-29-2-6.4-1.1-16.4-3.4-22.2-5.1-5.8-1.7-14.8-4.8-20-6.9-5.2-2.2-9.5-3.8-9.6-3.7-0.1 0.1-3.6 20-7.8 44.2-4.3 24.2-8 45.1-8.3 46.5-0.5 2.3 0 2.7 7.3 5.6 4.4 1.8 10.8 4.1 14.4 5.2 3.6 1.1 11.2 2.9 17 4.1 5.8 1.1 17.1 2.7 25.2 3.5 8.2 0.9 22.5 1.6 31.8 1.6 9.3 0 23.6-0.7 31.7-1.5 8.2-0.9 21.1-3.1 28.8-5 7.7-1.8 17.4-4.6 21.5-6.1 4.1-1.5 11.1-4.4 15.5-6.4 4.4-2 11.2-5.6 15-8 3.8-2.4 10.4-6.9 14.5-10 4.1-3.2 11.3-9.7 16-14.6 4.7-4.9 11.4-13.2 14.9-18.4 3.5-5.2 7.8-12.4 9.6-16 1.8-3.6 4.8-10.8 6.8-16 1.9-5.2 4.7-14.7 6.1-21 1.3-6.3 3-16.2 3.7-22 0.7-6.3 0.9-15.5 0.6-23-0.4-7-1.6-16.2-2.7-20.8-1.1-4.5-3-10.8-4.3-14-1.3-3.1-4.4-9-7-13-2.6-3.9-6.4-9.1-8.5-11.3-2-2.3-6.4-6.2-9.7-8.8-3.3-2.5-9.5-6.3-13.8-8.3-4.2-2.1-11.9-4.9-17-6.3-5-1.4-14.4-3-20.7-3.6-8.5-0.8-15-0.8-25 0-7.4 0.6-15.2 1.5-17.3 1.9-3 0.6-3.7 0.4-3.7-0.8 0-0.8 1.8-9.1 4-18.5 2.3-9.4 4.3-17.8 4.6-18.8 0.4-1.6 4.2-1.7 59.1-2l58.7-0.2c12.8-72.9 16.7-95.5 17-97.3l0.6-3.2h-206.8z"/><path class="c" d="m454 192.8c-2.7 1.7-5.2 4.2-6.3 6.5-1.6 3.4-1.7 8.6-1.7 63.2v59.5h-11c0-100.6-0.2-109.5-1.5-112.3-0.8-1.7-3.4-4.5-5.7-6-3.7-2.4-5.1-2.8-10-2.5-3.7 0.2-6.6 1-8.3 2.3-1.5 1.1-3.7 3.3-4.9 4.8-2.1 2.8-2.1 3.7-2.6 58.8l-0.5 56-10.4 3.4c0-81 0-81-2.3-84.4-1.3-1.9-3.6-4.4-5.1-5.5-2.2-1.6-4.3-2.1-9.2-2.1-4.9 0-7 0.5-9.2 2.1-1.5 1.1-3.8 3.6-5.1 5.5l-2.3 3.4c0.1 180 0.3 193.9 1.7 199.5 0.8 3.6 3.1 9.4 4.9 13 1.9 3.6 5.6 8.8 8.2 11.6 2.6 2.7 7.3 6.7 10.3 8.7 3 2 8.2 4.7 11.5 5.9 5.8 2.2 7.3 2.3 44 2.6 31.4 0.2 39 0 44-1.3 3.3-0.8 9.6-3.3 14-5.5 4.4-2.2 11-6.6 14.7-9.8 3.6-3.1 9.1-8.6 12.1-12.2 3-3.6 18.4-25.6 34.2-49 15.8-23.4 29.4-44.3 30.3-46.5 1-2.6 1.4-6.1 1.1-10.2-0.3-4.8-1-7-3.4-10.4-1.6-2.3-4.8-5.1-7-6.3-2.2-1.1-6-2.2-8.5-2.4-3.2-0.3-6 0.2-9.5 1.7-2.8 1.2-5.8 3-6.8 3.9-1.1 0.9-8 9.5-15.5 19-7.6 9.5-14 17.3-14.5 17.2-0.4 0-0.7-34.3-0.7-76.3l0.1-76.2c-3.6-5.3-6.2-7.6-8.1-8.7-2-1-5.6-1.8-8.5-1.8-3.6 0-6 0.6-8.4 2.2-1.9 1.3-4.4 3.6-5.5 5.1-2.1 2.8-2.1 3.8-2.4 54.8-0.1 28.5-0.5 51.9-1 51.9-0.4 0-2.7-0.6-5.2-1.4l-4.5-1.3c-1-121.7-1.1-123.9-3-126.7-1.1-1.6-3.7-3.7-5.8-4.7-2-1.1-5.6-1.9-8-1.9-2.9 0-5.6 0.9-8.7 2.8z"/><path  d="m857.5 226.2c-1.6 0.6-4.8 2.3-7 3.8-2.2 1.5-5.6 5.1-7.6 8.1-2.1 3-4.7 8.3-5.9 11.9-1.2 3.6-2.4 10.1-2.7 14.5-0.4 5.7-0.1 9.5 1 13.5 0.9 3.2 2.8 6.6 4.4 8.2 1.5 1.5 4 3.2 5.5 3.7 1.6 0.6 4.7 1.1 7 1.1 2.4-0.1 6.1-0.7 8.3-1.5 2.2-0.8 5.6-2.6 7.5-4 1.9-1.3 5.3-4.8 7.5-7.7 2.4-3.1 5.2-8.7 6.9-13.8 2.3-6.9 2.9-10.3 3-18 0.1-7.8-0.3-10.1-1.9-12.9-1.1-1.9-3.3-4.3-4.8-5.5-2.2-1.6-4.5-2.1-10.5-2.3-4.2-0.1-9.1 0.3-10.7 0.9zm605 1.6c-2.2 1-6 3.6-8.4 5.8-2.4 2.1-6.3 6.6-8.7 9.9-2.3 3.3-6.7 11.2-9.8 17.5-3 6.3-7.4 17.1-9.6 24-2.3 6.9-5.5 17.9-7.1 24.5-1.6 6.6-4.2 19.9-5.8 29.5-1.7 9.6-3.8 24-4.7 32-1.1 9.4-1.8 22.1-1.8 36-0.1 14.1 0.3 22.9 1.1 25.5 0.7 2.2 2.2 5.6 3.5 7.5 1.3 1.9 4.3 4.5 6.8 5.8 3.7 1.9 5.6 2.3 10.5 1.9 3.3-0.2 7.9-1.4 10.2-2.6 2.4-1.1 6.2-3.8 8.4-5.8 2.3-2.1 6.1-6.5 8.4-9.8 2.4-3.3 5.8-9.1 7.8-13 1.9-3.9 5-10.8 6.9-15.5 1.9-4.7 4.9-13.2 6.6-19 1.7-5.8 4.5-16.1 6.1-23 1.7-6.9 4.1-19.2 5.5-27.5 1.3-8.2 3.2-21.7 4.2-30 1-8.7 1.7-23.3 1.8-35 0.1-16.4-0.2-21-1.7-25.7-0.9-3.2-2.9-7.2-4.5-8.9-1.5-1.8-3.9-3.8-5.5-4.5-1.5-0.8-5.7-1.4-9.5-1.4-4.2 0-8.2 0.7-10.7 1.8zm-632 142c-2.3 0.9-5.8 2.8-8 4.2-2.1 1.4-5.6 4.5-7.8 7-2.1 2.5-5.2 7.2-6.8 10.5-1.6 3.3-3.6 8.9-4.6 12.5-1.1 4.2-1.7 10.3-1.8 17.5 0 9.9 0.3 11.5 2.6 16 1.4 2.8 4.1 6 6 7.3 1.9 1.3 5.2 2.8 7.4 3.4 2.2 0.5 6.7 0.8 10 0.6 3.5-0.3 8.3-1.6 11.7-3.1 3.2-1.5 7.9-4.9 10.5-7.5 2.7-2.7 6-7.3 7.5-10.3 1.5-3 3.7-9 4.8-13.4 1.3-5.3 2-11.2 2-17.5 0-5.2-0.5-11.3-1.1-13.5-0.6-2.2-2.3-5.7-3.7-7.9-1.5-2.1-4.4-4.7-6.5-5.7-2.6-1.4-5.8-1.9-11-1.8-4.4 0-8.8 0.7-11.2 1.7z"/></svg>